<svg width="1005" height="659" viewBox="0 0 1005 659" fill="none" xmlns="http://www.w3.org/2000/svg">
	<g id="Pokedex">
		<g id="LadoA">
			<g id="Fundo" filter="url(#filter0_d)">
				<rect width="512" height="648" rx="10" fill="#DC0A2D"/>
				<rect x="1.5" y="1.5" width="509" height="645" rx="8.5" stroke="black" stroke-width="3"/>
			</g>
			<g id="Corpo">
				<path id="Borda" d="M330.505 45.7209L285.995 96.9574C285.045 98.0506 283.668 98.6784 282.22 98.6784H13C10.2386 98.6784 8 100.917 8 103.678V634C8 636.761 10.2386 639 13 639H459C461.761 639 464 636.761 464 634V49C464 46.2386 461.761 44 459 44H334.28C332.832 44 331.455 44.6278 330.505 45.7209Z" stroke="black" stroke-width="3"/>
				<g id="Tela">
					<g id="Borda_2" filter="url(#filter1_d)">
						<path d="M23 131C23 127.134 26.134 124 30 124H441C444.866 124 448 127.134 448 131V492C448 495.866 444.866 499 441 499H52.3432C50.2564 499 48.2785 498.069 46.9487 496.461L24.6055 469.442C23.5678 468.187 23 466.609 23 464.981V131Z" fill="white"/>
					</g>
					<rect id="Tela_2" x="45.5" y="147.5" width="382" height="327" rx="8.5" fill="#232323" stroke="black" stroke-width="3"/>
					<g id="Linhas">
						<path id="Linha 1" d="M404 480H424" stroke="black" stroke-width="2"/>
						<path id="Linha 2" d="M404 485H424" stroke="black" stroke-width="2"/>
						<path id="Linha 3" d="M404 490H424" stroke="black" stroke-width="2"/>
						<path id="Linha 4" d="M404 495H424" stroke="black" stroke-width="2"/>
					</g>
					<circle id="Bolinha-G" cx="61.5" cy="487.5" r="7" fill="#EC092F" stroke="black"/>
					<circle id="Bolinha-1" cx="206" cy="135" r="4.5" fill="#EC092F" stroke="black"/>
					<circle id="Bolinha-2" cx="261" cy="135" r="4.5" fill="#EC092F" stroke="black"/>
				</g>
				<g id="Bot&#195;&#163;o" filter="url(#filter2_d)">
					<circle cx="63" cy="552" r="25" fill="#00312C"/>
					<circle cx="63" cy="552" r="24" stroke="black" stroke-width="2"/>
				</g>
				<rect id="Mini Tela" x="122" y="547" width="188" height="73" rx="4" fill="#52AE5F" stroke="black" stroke-width="2"/>
				<rect id="Botao-B" x="231.5" y="525.5" width="79" height="9" rx="4.5" fill="#115E88" stroke="black"/>
				<rect id="Botao-A" x="121.5" y="525.5" width="79" height="9" rx="4.5" fill="#EC092F" stroke="black"/>
				<g id="D-pad">
					<g id="Union" filter="url(#filter3_d)">
						<mask id="path-18-inside-1" fill="white">
							<path fill-rule="evenodd" clip-rule="evenodd" d="M406 556C400.477 556 396 551.523 396 546V531C396 525.477 391.523 521 386 521H376C370.477 521 366 525.477 366 531V546C366 551.523 361.523 556 356 556H341C335.477 556 331 560.477 331 566V576C331 581.523 335.477 586 341 586H356C361.523 586 366 590.477 366 596V611C366 616.523 370.477 621 376 621H386C391.523 621 396 616.523 396 611V596C396 590.477 400.477 586 406 586H421C426.523 586 431 581.523 431 576V566C431 560.477 426.523 556 421 556H406Z"/>
						</mask>
						<path fill-rule="evenodd" clip-rule="evenodd" d="M406 556C400.477 556 396 551.523 396 546V531C396 525.477 391.523 521 386 521H376C370.477 521 366 525.477 366 531V546C366 551.523 361.523 556 356 556H341C335.477 556 331 560.477 331 566V576C331 581.523 335.477 586 341 586H356C361.523 586 366 590.477 366 596V611C366 616.523 370.477 621 376 621H386C391.523 621 396 616.523 396 611V596C396 590.477 400.477 586 406 586H421C426.523 586 431 581.523 431 576V566C431 560.477 426.523 556 421 556H406Z" fill="#232323"/>
						<path d="M395 531V546H397V531H395ZM376 522H386V520H376V522ZM367 546V531H365V546H367ZM341 557H356V555H341V557ZM332 576V566H330V576H332ZM356 585H341V587H356V585ZM367 611V596H365V611H367ZM386 620H376V622H386V620ZM395 596V611H397V596H395ZM421 585H406V587H421V585ZM430 566V576H432V566H430ZM406 557H421V555H406V557ZM432 566C432 559.925 427.075 555 421 555V557C425.971 557 430 561.029 430 566H432ZM421 587C427.075 587 432 582.075 432 576H430C430 580.971 425.971 585 421 585V587ZM397 596C397 591.029 401.029 587 406 587V585C399.925 585 395 589.925 395 596H397ZM386 622C392.075 622 397 617.075 397 611H395C395 615.971 390.971 620 386 620V622ZM365 611C365 617.075 369.925 622 376 622V620C371.029 620 367 615.971 367 611H365ZM356 587C360.971 587 365 591.029 365 596H367C367 589.925 362.075 585 356 585V587ZM330 576C330 582.075 334.925 587 341 587V585C336.029 585 332 580.971 332 576H330ZM341 555C334.925 555 330 559.925 330 566H332C332 561.029 336.029 557 341 557V555ZM365 546C365 550.971 360.971 555 356 555V557C362.075 557 367 552.075 367 546H365ZM376 520C369.925 520 365 524.925 365 531H367C367 526.029 371.029 522 376 522V520ZM395 546C395 552.075 399.925 557 406 557V555C401.029 555 397 550.971 397 546H395ZM397 531C397 524.925 392.075 520 386 520V522C390.971 522 395 526.029 395 531H397Z" fill="black" mask="url(#path-18-inside-1)"/>
					</g>
					<path id="Flecha - Superior" d="M378.402 526.5C379.557 524.5 382.443 524.5 383.598 526.5L391.392 540C392.547 542 391.104 544.5 388.794 544.5H373.206C370.896 544.5 369.453 542 370.608 540L378.402 526.5Z" fill="black"/>
					<path id="Flecha - Inferior" d="M383.598 615.5C382.443 617.5 379.557 617.5 378.402 615.5L370.608 602C369.453 600 370.896 597.5 373.206 597.5L388.794 597.5C391.104 597.5 392.547 600 391.392 602L383.598 615.5Z" fill="black"/>
					<path id="Flecha - Esquerda" d="M425.5 568.402C427.5 569.557 427.5 572.443 425.5 573.598L412 581.392C410 582.547 407.5 581.104 407.5 578.794L407.5 563.206C407.5 560.896 410 559.453 412 560.608L425.5 568.402Z" fill="black"/>
					<path id="Flecha - Direita" d="M337.5 573.598C335.5 572.443 335.5 569.557 337.5 568.402L351 560.608C353 559.453 355.5 560.896 355.5 563.206L355.5 578.794C355.5 581.104 353 582.547 351 581.392L337.5 573.598Z" fill="black"/>
					<circle id="Bolinha" cx="381.5" cy="571.5" r="12.5" fill="#111111"/>
				</g>
			</g>
			<g id="Cabe&#195;&#167;a">
				<path id="Vector 1" d="M3 88H269.236C272.169 88 274.954 86.7125 276.854 84.4783L318.487 35.5217C320.387 33.2875 323.172 32 326.105 32H509" stroke="#8A061B" stroke-width="10"/>
				<g id="Esfera">
					<circle id="Borda_3" cx="58" cy="45" r="29.5" fill="white" stroke="black"/>
					<circle id="Preenchimento" cx="58" cy="45" r="27" fill="#29AAFE"/>
					<circle id="Sombra" cx="60.5" cy="47.5" r="22.5" fill="#19699E"/>
					<circle id="Luz" cx="49" cy="35" r="10" fill="#29AAFE"/>
					<circle id="Luzinha" cx="48" cy="34" r="3" fill="white" fill-opacity="0.75"/>
				</g>
				<g id="Luzinha_2">
					<circle id="Preenchimento_2" cx="119.5" cy="22.5" r="7" fill="#EC092F" stroke="black"/>
					<circle id="Sombra_2" cx="120" cy="23" r="6" fill="#9F0019"/>
					<circle id="Luz_2" cx="117.5" cy="20.5" r="3.5" fill="#EC092F"/>
					<circle id="Luzinha_3" cx="116.5" cy="19.5" r="1.5" fill="white" fill-opacity="0.75"/>
				</g>
				<g id="Luzinha_4">
					<circle id="Preenchimento_3" cx="159.5" cy="22.5" r="7" fill="#FFE02E" stroke="black"/>
					<circle id="Sombra_3" cx="160" cy="23" r="6" fill="#DEC221"/>
					<circle id="Luz_3" cx="157.5" cy="20.5" r="3.5" fill="#FFE02E"/>
					<circle id="Luzinha_5" cx="156.5" cy="19.5" r="1.5" fill="white" fill-opacity="0.75"/>
				</g>
				<g id="Luzinha_6">
					<circle id="Preenchimento_4" cx="199.5" cy="22.5" r="7" fill="#50A960" stroke="black"/>
					<circle id="Sombra_4" cx="200" cy="23" r="6" fill="#469352"/>
					<circle id="Luz_4" cx="197.5" cy="20.5" r="3.5" fill="#50A960"/>
					<circle id="Luzinha_7" cx="196.5" cy="19.5" r="1.5" fill="white" fill-opacity="0.75"/>
				</g>
			</g>
		</g>
		<g id="LadoB">
			<g id="Fundo_2" filter="url(#filter4_d)">
				<path d="M510 48C510 42.4771 514.477 38 520 38H625.688C628.44 38 631.071 39.1343 632.96 41.1358L677.54 88.3642C679.429 90.3657 682.06 91.5 684.812 91.5H985C990.523 91.5 995 95.9772 995 101.5V639C995 644.523 990.523 649 985 649H520C514.477 649 510 644.523 510 639V48Z" fill="#DC0A2D"/>
				<path d="M511.5 48C511.5 43.3056 515.306 39.5 520 39.5H625.688C628.027 39.5 630.263 40.4642 631.869 42.1654L676.449 89.3939C678.622 91.6955 681.647 93 684.812 93H985C989.694 93 993.5 96.8056 993.5 101.5V639C993.5 643.694 989.694 647.5 985 647.5H520C515.306 647.5 511.5 643.694 511.5 639V48Z" stroke="black" stroke-width="3"/>
			</g>
			<rect id="Tela-2A" x="529.5" y="142.5" width="447" height="147" rx="8.5" fill="#232323" stroke="black" stroke-width="3"/>
			<g id="Lista Botoes" filter="url(#filter5_d)">
				<path id="Botao-1" d="M528.5 320C528.5 317.515 530.515 315.5 533 315.5H617.5V364.5H528.5V320Z" fill="#29AAFE" stroke="black"/>
				<rect id="Botao-2" x="618.5" y="315.5" width="89" height="49" fill="#29AAFE" stroke="black"/>
				<rect id="Botao-3" x="708.5" y="315.5" width="89" height="49" fill="#29AAFE" stroke="black"/>
				<rect id="Botao-4" x="798.5" y="315.5" width="89" height="49" fill="#29AAFE" stroke="black"/>
				<path id="Botao-5" d="M888.5 315.5H973C975.485 315.5 977.5 317.515 977.5 320V364.5H888.5V315.5Z" fill="#29AAFE" stroke="black"/>
				<path id="Botao-6" d="M528.5 365.5H617.5V414.5H533C530.515 414.5 528.5 412.485 528.5 410V365.5Z" fill="#29AAFE" stroke="black"/>
				<rect id="Botao-7" x="618.5" y="365.5" width="89" height="49" fill="#29AAFE" stroke="black"/>
				<rect id="Botao-8" x="708.5" y="365.5" width="89" height="49" fill="#29AAFE" stroke="black"/>
				<rect id="Botao-9" x="798.5" y="365.5" width="89" height="49" fill="#29AAFE" stroke="black"/>
				<path id="Botao-10" d="M888.5 365.5H977.5V410C977.5 412.485 975.485 414.5 973 414.5H888.5V365.5Z" fill="#29AAFE" stroke="black"/>
			</g>
			<rect id="Botao-A_2" x="803.5" y="428.5" width="79" height="9" rx="4.5" fill="#232323" stroke="black"/>
			<rect id="Botao-A_3" x="893.5" y="428.5" width="79" height="9" rx="4.5" fill="#232323" stroke="black"/>
			<g id="Luzinha_8">
				<circle id="Preenchimento_5" cx="933" cy="483" r="24.5" fill="#FFE02E" stroke="black"/>
				<circle id="Sombra_5" cx="934.667" cy="484.667" r="20" fill="#DEC221"/>
				<circle id="Luz_5" cx="926.333" cy="476.333" r="11.6667" fill="#FFE02E"/>
				<circle id="Luzinha_9" cx="923" cy="473" r="5" fill="white" fill-opacity="0.75"/>
			</g>
			<g id="Setas" filter="url(#filter6_d)">
				<path id="BotaoSetaE" d="M533 458.5H617.5V507.5H533C530.515 507.5 528.5 505.485 528.5 503V463C528.5 460.515 530.515 458.5 533 458.5Z" fill="white" stroke="black"/>
				<path id="BotaoSetaD" d="M618.5 458.5H703C705.485 458.5 707.5 460.515 707.5 463V503C707.5 505.485 705.485 507.5 703 507.5H618.5V458.5Z" fill="white" stroke="black"/>
			</g>
			<rect id="Telinha-D2" x="798.5" y="572.5" width="179" height="49" rx="9.5" fill="#232323" stroke="black"/>
			<rect id="Telinha-D1" x="528.5" y="572.5" width="179" height="49" rx="9.5" fill="#232323" stroke="black"/>
		</g>
		<g id="Dobradica">
			<line id="Linha" x1="510" y1="591.5" x2="463" y2="591.5" stroke="black" stroke-width="3"/>
			<line id="Linha_2" x1="511" y1="583.5" x2="464" y2="583.5" stroke="black" stroke-width="3"/>
			<line id="Linha_3" x1="511" y1="638.5" x2="460" y2="638.5" stroke="black" stroke-width="3"/>
		</g>
		<g id="Dobradica_2">
			<line id="Linha_4" x1="463" y1="91.5" x2="510" y2="91.5" stroke="black" stroke-width="3"/>
			<line id="Linha_5" x1="462" y1="99.5" x2="509" y2="99.5" stroke="black" stroke-width="3"/>
			<line id="Linha_6" x1="462" y1="44.5" x2="509" y2="44.5" stroke="black" stroke-width="3"/>
		</g>
	</g>
	<defs>
		<filter id="filter0_d" x="0" y="0" width="522" height="658" filterUnits="userSpaceOnUse" color-interpolation-filters="sRGB">
			<feFlood flood-opacity="0" result="BackgroundImageFix"/>
			<feColorMatrix in="SourceAlpha" type="matrix" values="0 0 0 0 0 0 0 0 0 0 0 0 0 0 0 0 0 0 127 0"/>
			<feOffset dx="10" dy="10"/>
			<feColorMatrix type="matrix" values="0 0 0 0 0.654167 0 0 0 0 0.0136285 0 0 0 0 0.120385 0 0 0 1 0"/>
			<feBlend mode="normal" in2="BackgroundImageFix" result="effect1_dropShadow"/>
			<feBlend mode="normal" in="SourceGraphic" in2="effect1_dropShadow" result="shape"/>
		</filter>
		<filter id="filter1_d" x="23" y="124" width="428" height="378" filterUnits="userSpaceOnUse" color-interpolation-filters="sRGB">
			<feFlood flood-opacity="0" result="BackgroundImageFix"/>
			<feColorMatrix in="SourceAlpha" type="matrix" values="0 0 0 0 0 0 0 0 0 0 0 0 0 0 0 0 0 0 127 0"/>
			<feOffset dx="3" dy="3"/>
			<feColorMatrix type="matrix" values="0 0 0 0 1 0 0 0 0 1 0 0 0 0 1 0 0 0 0.8 0"/>
			<feBlend mode="normal" in2="BackgroundImageFix" result="effect1_dropShadow"/>
			<feBlend mode="normal" in="SourceGraphic" in2="effect1_dropShadow" result="shape"/>
		</filter>
		<filter id="filter2_d" x="38" y="527" width="53" height="53" filterUnits="userSpaceOnUse" color-interpolation-filters="sRGB">
			<feFlood flood-opacity="0" result="BackgroundImageFix"/>
			<feColorMatrix in="SourceAlpha" type="matrix" values="0 0 0 0 0 0 0 0 0 0 0 0 0 0 0 0 0 0 127 0"/>
			<feOffset dx="3" dy="3"/>
			<feColorMatrix type="matrix" values="0 0 0 0 0 0 0 0 0 0 0 0 0 0 0 0 0 0 1 0"/>
			<feBlend mode="normal" in2="BackgroundImageFix" result="effect1_dropShadow"/>
			<feBlend mode="normal" in="SourceGraphic" in2="effect1_dropShadow" result="shape"/>
		</filter>
		<filter id="filter3_d" x="329" y="521" width="102" height="102" filterUnits="userSpaceOnUse" color-interpolation-filters="sRGB">
			<feFlood flood-opacity="0" result="BackgroundImageFix"/>
			<feColorMatrix in="SourceAlpha" type="matrix" values="0 0 0 0 0 0 0 0 0 0 0 0 0 0 0 0 0 0 127 0"/>
			<feOffset dx="-2" dy="2"/>
			<feColorMatrix type="matrix" values="0 0 0 0 0 0 0 0 0 0 0 0 0 0 0 0 0 0 1 0"/>
			<feBlend mode="normal" in2="BackgroundImageFix" result="effect1_dropShadow"/>
			<feBlend mode="normal" in="SourceGraphic" in2="effect1_dropShadow" result="shape"/>
		</filter>
		<filter id="filter4_d" x="510" y="38" width="495" height="621" filterUnits="userSpaceOnUse" color-interpolation-filters="sRGB">
			<feFlood flood-opacity="0" result="BackgroundImageFix"/>
			<feColorMatrix in="SourceAlpha" type="matrix" values="0 0 0 0 0 0 0 0 0 0 0 0 0 0 0 0 0 0 127 0"/>
			<feOffset dx="10" dy="10"/>
			<feColorMatrix type="matrix" values="0 0 0 0 0.654167 0 0 0 0 0.0136285 0 0 0 0 0.120385 0 0 0 1 0"/>
			<feBlend mode="normal" in2="BackgroundImageFix" result="effect1_dropShadow"/>
			<feBlend mode="normal" in="SourceGraphic" in2="effect1_dropShadow" result="shape"/>
		</filter>
		<filter id="filter5_d" x="528" y="315" width="453" height="103" filterUnits="userSpaceOnUse" color-interpolation-filters="sRGB">
			<feFlood flood-opacity="0" result="BackgroundImageFix"/>
			<feColorMatrix in="SourceAlpha" type="matrix" values="0 0 0 0 0 0 0 0 0 0 0 0 0 0 0 0 0 0 127 0"/>
			<feOffset dx="3" dy="3"/>
			<feColorMatrix type="matrix" values="0 0 0 0 0 0 0 0 0 0 0 0 0 0 0 0 0 0 1 0"/>
			<feBlend mode="normal" in2="BackgroundImageFix" result="effect1_dropShadow"/>
			<feBlend mode="normal" in="SourceGraphic" in2="effect1_dropShadow" result="shape"/>
		</filter>
		<filter id="filter6_d" x="528" y="458" width="183" height="53" filterUnits="userSpaceOnUse" color-interpolation-filters="sRGB">
			<feFlood flood-opacity="0" result="BackgroundImageFix"/>
			<feColorMatrix in="SourceAlpha" type="matrix" values="0 0 0 0 0 0 0 0 0 0 0 0 0 0 0 0 0 0 127 0"/>
			<feOffset dx="3" dy="3"/>
			<feColorMatrix type="matrix" values="0 0 0 0 0 0 0 0 0 0 0 0 0 0 0 0 0 0 1 0"/>
			<feBlend mode="normal" in2="BackgroundImageFix" result="effect1_dropShadow"/>
			<feBlend mode="normal" in="SourceGraphic" in2="effect1_dropShadow" result="shape"/>
		</filter>
	</defs>
</svg>
